<?xml version="1.0" encoding="UTF-8" standalone="no"?>
<!DOCTYPE svg PUBLIC "-//W3C//DTD SVG 1.1//EN"
 "http://www.w3.org/Graphics/SVG/1.1/DTD/svg11.dtd">
<!-- Generated by graphviz version 2.43.0 (0)
 -->
<!-- Title: Tree Pages: 1 -->
<svg width="549pt" height="671pt"
 viewBox="0.00 0.00 549.00 671.00" xmlns="http://www.w3.org/2000/svg" xmlns:xlink="http://www.w3.org/1999/xlink">
<g id="graph0" class="graph" transform="scale(1 1) rotate(0) translate(4 667)">
<title>Tree</title>
<polygon fill="white" stroke="transparent" points="-4,4 -4,-667 545,-667 545,4 -4,4"/>
<!-- 0 -->
<g id="node1" class="node">
<title>0</title>
<path fill="#f7f3fd" stroke="black" d="M254.5,-663C254.5,-663 146.5,-663 146.5,-663 140.5,-663 134.5,-657 134.5,-651 134.5,-651 134.5,-592 134.5,-592 134.5,-586 140.5,-580 146.5,-580 146.5,-580 254.5,-580 254.5,-580 260.5,-580 266.5,-586 266.5,-592 266.5,-592 266.5,-651 266.5,-651 266.5,-657 260.5,-663 254.5,-663"/>
<text text-anchor="start" x="146.5" y="-647.8" font-family="Helvetica,sans-Serif" font-size="14.00">petal_length ≤ 2.6</text>
<text text-anchor="start" x="165" y="-632.8" font-family="Helvetica,sans-Serif" font-size="14.00">gini = 0.665</text>
<text text-anchor="start" x="155.5" y="-617.8" font-family="Helvetica,sans-Serif" font-size="14.00">samples = 120</text>
<text text-anchor="start" x="142.5" y="-602.8" font-family="Helvetica,sans-Serif" font-size="14.00">value = [39, 37, 44]</text>
<text text-anchor="start" x="173" y="-587.8" font-family="Helvetica,sans-Serif" font-size="14.00">class = e</text>
</g>
<!-- 1 -->
<g id="node2" class="node">
<title>1</title>
<path fill="#e58139" stroke="black" d="M177,-536.5C177,-536.5 84,-536.5 84,-536.5 78,-536.5 72,-530.5 72,-524.5 72,-524.5 72,-480.5 72,-480.5 72,-474.5 78,-468.5 84,-468.5 84,-468.5 177,-468.5 177,-468.5 183,-468.5 189,-474.5 189,-480.5 189,-480.5 189,-524.5 189,-524.5 189,-530.5 183,-536.5 177,-536.5"/>
<text text-anchor="start" x="102.5" y="-521.3" font-family="Helvetica,sans-Serif" font-size="14.00">gini = 0.0</text>
<text text-anchor="start" x="89.5" y="-506.3" font-family="Helvetica,sans-Serif" font-size="14.00">samples = 39</text>
<text text-anchor="start" x="80" y="-491.3" font-family="Helvetica,sans-Serif" font-size="14.00">value = [39, 0, 0]</text>
<text text-anchor="start" x="103.5" y="-476.3" font-family="Helvetica,sans-Serif" font-size="14.00">class = s</text>
</g>
<!-- 0&#45;&gt;1 -->
<g id="edge1" class="edge">
<title>0&#45;&gt;1</title>
<path fill="none" stroke="black" d="M176.21,-579.91C169.55,-568.76 162.3,-556.66 155.59,-545.44"/>
<polygon fill="black" stroke="black" points="158.48,-543.45 150.34,-536.67 152.47,-547.05 158.48,-543.45"/>
<text text-anchor="middle" x="144.25" y="-557.21" font-family="Helvetica,sans-Serif" font-size="14.00">True</text>
</g>
<!-- 2 -->
<g id="node3" class="node">
<title>2</title>
<path fill="#ebe0fb" stroke="black" d="M321.5,-544C321.5,-544 219.5,-544 219.5,-544 213.5,-544 207.5,-538 207.5,-532 207.5,-532 207.5,-473 207.5,-473 207.5,-467 213.5,-461 219.5,-461 219.5,-461 321.5,-461 321.5,-461 327.5,-461 333.5,-467 333.5,-473 333.5,-473 333.5,-532 333.5,-532 333.5,-538 327.5,-544 321.5,-544"/>
<text text-anchor="start" x="215.5" y="-528.8" font-family="Helvetica,sans-Serif" font-size="14.00">petal_width ≤ 1.65</text>
<text text-anchor="start" x="235" y="-513.8" font-family="Helvetica,sans-Serif" font-size="14.00">gini = 0.496</text>
<text text-anchor="start" x="229.5" y="-498.8" font-family="Helvetica,sans-Serif" font-size="14.00">samples = 81</text>
<text text-anchor="start" x="216" y="-483.8" font-family="Helvetica,sans-Serif" font-size="14.00">value = [0, 37, 44]</text>
<text text-anchor="start" x="243" y="-468.8" font-family="Helvetica,sans-Serif" font-size="14.00">class = e</text>
</g>
<!-- 0&#45;&gt;2 -->
<g id="edge2" class="edge">
<title>0&#45;&gt;2</title>
<path fill="none" stroke="black" d="M224.79,-579.91C230.05,-571.1 235.68,-561.7 241.12,-552.61"/>
<polygon fill="black" stroke="black" points="244.13,-554.4 246.26,-544.02 238.12,-550.81 244.13,-554.4"/>
<text text-anchor="middle" x="252.35" y="-564.57" font-family="Helvetica,sans-Serif" font-size="14.00">False</text>
</g>
<!-- 3 -->
<g id="node4" class="node">
<title>3</title>
<path fill="#4fe88f" stroke="black" d="M250,-425C250,-425 143,-425 143,-425 137,-425 131,-419 131,-413 131,-413 131,-354 131,-354 131,-348 137,-342 143,-342 143,-342 250,-342 250,-342 256,-342 262,-348 262,-354 262,-354 262,-413 262,-413 262,-419 256,-425 250,-425"/>
<text text-anchor="start" x="139" y="-409.8" font-family="Helvetica,sans-Serif" font-size="14.00">petal_length ≤ 4.95</text>
<text text-anchor="start" x="164.5" y="-394.8" font-family="Helvetica,sans-Serif" font-size="14.00">gini = 0.18</text>
<text text-anchor="start" x="155.5" y="-379.8" font-family="Helvetica,sans-Serif" font-size="14.00">samples = 40</text>
<text text-anchor="start" x="146" y="-364.8" font-family="Helvetica,sans-Serif" font-size="14.00">value = [0, 36, 4]</text>
<text text-anchor="start" x="169" y="-349.8" font-family="Helvetica,sans-Serif" font-size="14.00">class = p</text>
</g>
<!-- 2&#45;&gt;3 -->
<g id="edge3" class="edge">
<title>2&#45;&gt;3</title>
<path fill="none" stroke="black" d="M244.83,-460.91C239.26,-452.1 233.31,-442.7 227.56,-433.61"/>
<polygon fill="black" stroke="black" points="230.43,-431.6 222.13,-425.02 224.52,-435.34 230.43,-431.6"/>
</g>
<!-- 10 -->
<g id="node11" class="node">
<title>10</title>
<path fill="#843ee6" stroke="black" d="M399,-425C399,-425 292,-425 292,-425 286,-425 280,-419 280,-413 280,-413 280,-354 280,-354 280,-348 286,-342 292,-342 292,-342 399,-342 399,-342 405,-342 411,-348 411,-354 411,-354 411,-413 411,-413 411,-419 405,-425 399,-425"/>
<text text-anchor="start" x="288" y="-409.8" font-family="Helvetica,sans-Serif" font-size="14.00">petal_length ≤ 4.85</text>
<text text-anchor="start" x="310" y="-394.8" font-family="Helvetica,sans-Serif" font-size="14.00">gini = 0.048</text>
<text text-anchor="start" x="304.5" y="-379.8" font-family="Helvetica,sans-Serif" font-size="14.00">samples = 41</text>
<text text-anchor="start" x="295" y="-364.8" font-family="Helvetica,sans-Serif" font-size="14.00">value = [0, 1, 40]</text>
<text text-anchor="start" x="318" y="-349.8" font-family="Helvetica,sans-Serif" font-size="14.00">class = e</text>
</g>
<!-- 2&#45;&gt;10 -->
<g id="edge10" class="edge">
<title>2&#45;&gt;10</title>
<path fill="none" stroke="black" d="M296.52,-460.91C302.16,-452.1 308.19,-442.7 314.02,-433.61"/>
<polygon fill="black" stroke="black" points="317.07,-435.33 319.53,-425.02 311.18,-431.55 317.07,-435.33"/>
</g>
<!-- 4 -->
<g id="node5" class="node">
<title>4</title>
<path fill="#39e581" stroke="black" d="M105,-298.5C105,-298.5 12,-298.5 12,-298.5 6,-298.5 0,-292.5 0,-286.5 0,-286.5 0,-242.5 0,-242.5 0,-236.5 6,-230.5 12,-230.5 12,-230.5 105,-230.5 105,-230.5 111,-230.5 117,-236.5 117,-242.5 117,-242.5 117,-286.5 117,-286.5 117,-292.5 111,-298.5 105,-298.5"/>
<text text-anchor="start" x="30.5" y="-283.3" font-family="Helvetica,sans-Serif" font-size="14.00">gini = 0.0</text>
<text text-anchor="start" x="17.5" y="-268.3" font-family="Helvetica,sans-Serif" font-size="14.00">samples = 35</text>
<text text-anchor="start" x="8" y="-253.3" font-family="Helvetica,sans-Serif" font-size="14.00">value = [0, 35, 0]</text>
<text text-anchor="start" x="31" y="-238.3" font-family="Helvetica,sans-Serif" font-size="14.00">class = p</text>
</g>
<!-- 3&#45;&gt;4 -->
<g id="edge4" class="edge">
<title>3&#45;&gt;4</title>
<path fill="none" stroke="black" d="M148.62,-341.91C134.7,-330.1 119.5,-317.22 105.62,-305.45"/>
<polygon fill="black" stroke="black" points="107.51,-302.46 97.62,-298.67 102.98,-307.8 107.51,-302.46"/>
</g>
<!-- 5 -->
<g id="node6" class="node">
<title>5</title>
<path fill="#a06aec" stroke="black" d="M249.5,-306C249.5,-306 147.5,-306 147.5,-306 141.5,-306 135.5,-300 135.5,-294 135.5,-294 135.5,-235 135.5,-235 135.5,-229 141.5,-223 147.5,-223 147.5,-223 249.5,-223 249.5,-223 255.5,-223 261.5,-229 261.5,-235 261.5,-235 261.5,-294 261.5,-294 261.5,-300 255.5,-306 249.5,-306"/>
<text text-anchor="start" x="143.5" y="-290.8" font-family="Helvetica,sans-Serif" font-size="14.00">petal_width ≤ 1.55</text>
<text text-anchor="start" x="166.5" y="-275.8" font-family="Helvetica,sans-Serif" font-size="14.00">gini = 0.32</text>
<text text-anchor="start" x="161" y="-260.8" font-family="Helvetica,sans-Serif" font-size="14.00">samples = 5</text>
<text text-anchor="start" x="151.5" y="-245.8" font-family="Helvetica,sans-Serif" font-size="14.00">value = [0, 1, 4]</text>
<text text-anchor="start" x="171" y="-230.8" font-family="Helvetica,sans-Serif" font-size="14.00">class = e</text>
</g>
<!-- 3&#45;&gt;5 -->
<g id="edge5" class="edge">
<title>3&#45;&gt;5</title>
<path fill="none" stroke="black" d="M197.19,-341.91C197.34,-333.56 197.49,-324.67 197.64,-316.02"/>
<polygon fill="black" stroke="black" points="201.14,-316.08 197.81,-306.02 194.14,-315.96 201.14,-316.08"/>
</g>
<!-- 6 -->
<g id="node7" class="node">
<title>6</title>
<path fill="#8139e5" stroke="black" d="M103.5,-179.5C103.5,-179.5 17.5,-179.5 17.5,-179.5 11.5,-179.5 5.5,-173.5 5.5,-167.5 5.5,-167.5 5.5,-123.5 5.5,-123.5 5.5,-117.5 11.5,-111.5 17.5,-111.5 17.5,-111.5 103.5,-111.5 103.5,-111.5 109.5,-111.5 115.5,-117.5 115.5,-123.5 115.5,-123.5 115.5,-167.5 115.5,-167.5 115.5,-173.5 109.5,-179.5 103.5,-179.5"/>
<text text-anchor="start" x="32.5" y="-164.3" font-family="Helvetica,sans-Serif" font-size="14.00">gini = 0.0</text>
<text text-anchor="start" x="23" y="-149.3" font-family="Helvetica,sans-Serif" font-size="14.00">samples = 3</text>
<text text-anchor="start" x="13.5" y="-134.3" font-family="Helvetica,sans-Serif" font-size="14.00">value = [0, 0, 3]</text>
<text text-anchor="start" x="33" y="-119.3" font-family="Helvetica,sans-Serif" font-size="14.00">class = e</text>
</g>
<!-- 5&#45;&gt;6 -->
<g id="edge6" class="edge">
<title>5&#45;&gt;6</title>
<path fill="none" stroke="black" d="M150.62,-222.91C136.7,-211.1 121.5,-198.22 107.62,-186.45"/>
<polygon fill="black" stroke="black" points="109.51,-183.46 99.62,-179.67 104.98,-188.8 109.51,-183.46"/>
</g>
<!-- 7 -->
<g id="node8" class="node">
<title>7</title>
<path fill="#ffffff" stroke="black" d="M253,-187C253,-187 146,-187 146,-187 140,-187 134,-181 134,-175 134,-175 134,-116 134,-116 134,-110 140,-104 146,-104 146,-104 253,-104 253,-104 259,-104 265,-110 265,-116 265,-116 265,-175 265,-175 265,-181 259,-187 253,-187"/>
<text text-anchor="start" x="142" y="-171.8" font-family="Helvetica,sans-Serif" font-size="14.00">petal_length ≤ 5.45</text>
<text text-anchor="start" x="171.5" y="-156.8" font-family="Helvetica,sans-Serif" font-size="14.00">gini = 0.5</text>
<text text-anchor="start" x="162" y="-141.8" font-family="Helvetica,sans-Serif" font-size="14.00">samples = 2</text>
<text text-anchor="start" x="152.5" y="-126.8" font-family="Helvetica,sans-Serif" font-size="14.00">value = [0, 1, 1]</text>
<text text-anchor="start" x="172" y="-111.8" font-family="Helvetica,sans-Serif" font-size="14.00">class = p</text>
</g>
<!-- 5&#45;&gt;7 -->
<g id="edge7" class="edge">
<title>5&#45;&gt;7</title>
<path fill="none" stroke="black" d="M198.85,-222.91C198.92,-214.65 198.99,-205.86 199.07,-197.3"/>
<polygon fill="black" stroke="black" points="202.57,-197.05 199.15,-187.02 195.57,-196.99 202.57,-197.05"/>
</g>
<!-- 8 -->
<g id="node9" class="node">
<title>8</title>
<path fill="#39e581" stroke="black" d="M178.5,-68C178.5,-68 92.5,-68 92.5,-68 86.5,-68 80.5,-62 80.5,-56 80.5,-56 80.5,-12 80.5,-12 80.5,-6 86.5,0 92.5,0 92.5,0 178.5,0 178.5,0 184.5,0 190.5,-6 190.5,-12 190.5,-12 190.5,-56 190.5,-56 190.5,-62 184.5,-68 178.5,-68"/>
<text text-anchor="start" x="107.5" y="-52.8" font-family="Helvetica,sans-Serif" font-size="14.00">gini = 0.0</text>
<text text-anchor="start" x="98" y="-37.8" font-family="Helvetica,sans-Serif" font-size="14.00">samples = 1</text>
<text text-anchor="start" x="88.5" y="-22.8" font-family="Helvetica,sans-Serif" font-size="14.00">value = [0, 1, 0]</text>
<text text-anchor="start" x="108" y="-7.8" font-family="Helvetica,sans-Serif" font-size="14.00">class = p</text>
</g>
<!-- 7&#45;&gt;8 -->
<g id="edge8" class="edge">
<title>7&#45;&gt;8</title>
<path fill="none" stroke="black" d="M175.67,-103.73C170.6,-95.06 165.25,-85.9 160.15,-77.18"/>
<polygon fill="black" stroke="black" points="163.03,-75.17 154.96,-68.3 156.99,-78.7 163.03,-75.17"/>
</g>
<!-- 9 -->
<g id="node10" class="node">
<title>9</title>
<path fill="#8139e5" stroke="black" d="M306.5,-68C306.5,-68 220.5,-68 220.5,-68 214.5,-68 208.5,-62 208.5,-56 208.5,-56 208.5,-12 208.5,-12 208.5,-6 214.5,0 220.5,0 220.5,0 306.5,0 306.5,0 312.5,0 318.5,-6 318.5,-12 318.5,-12 318.5,-56 318.5,-56 318.5,-62 312.5,-68 306.5,-68"/>
<text text-anchor="start" x="235.5" y="-52.8" font-family="Helvetica,sans-Serif" font-size="14.00">gini = 0.0</text>
<text text-anchor="start" x="226" y="-37.8" font-family="Helvetica,sans-Serif" font-size="14.00">samples = 1</text>
<text text-anchor="start" x="216.5" y="-22.8" font-family="Helvetica,sans-Serif" font-size="14.00">value = [0, 0, 1]</text>
<text text-anchor="start" x="236" y="-7.8" font-family="Helvetica,sans-Serif" font-size="14.00">class = e</text>
</g>
<!-- 7&#45;&gt;9 -->
<g id="edge9" class="edge">
<title>7&#45;&gt;9</title>
<path fill="none" stroke="black" d="M223.33,-103.73C228.4,-95.06 233.75,-85.9 238.85,-77.18"/>
<polygon fill="black" stroke="black" points="242.01,-78.7 244.04,-68.3 235.97,-75.17 242.01,-78.7"/>
</g>
<!-- 11 -->
<g id="node12" class="node">
<title>11</title>
<path fill="#ab7bee" stroke="black" d="M393.5,-306C393.5,-306 295.5,-306 295.5,-306 289.5,-306 283.5,-300 283.5,-294 283.5,-294 283.5,-235 283.5,-235 283.5,-229 289.5,-223 295.5,-223 295.5,-223 393.5,-223 393.5,-223 399.5,-223 405.5,-229 405.5,-235 405.5,-235 405.5,-294 405.5,-294 405.5,-300 399.5,-306 393.5,-306"/>
<text text-anchor="start" x="291.5" y="-290.8" font-family="Helvetica,sans-Serif" font-size="14.00">sepal_width ≤ 3.1</text>
<text text-anchor="start" x="309" y="-275.8" font-family="Helvetica,sans-Serif" font-size="14.00">gini = 0.375</text>
<text text-anchor="start" x="307" y="-260.8" font-family="Helvetica,sans-Serif" font-size="14.00">samples = 4</text>
<text text-anchor="start" x="297.5" y="-245.8" font-family="Helvetica,sans-Serif" font-size="14.00">value = [0, 1, 3]</text>
<text text-anchor="start" x="317" y="-230.8" font-family="Helvetica,sans-Serif" font-size="14.00">class = e</text>
</g>
<!-- 10&#45;&gt;11 -->
<g id="edge11" class="edge">
<title>10&#45;&gt;11</title>
<path fill="none" stroke="black" d="M345.15,-341.91C345.08,-333.65 345.01,-324.86 344.93,-316.3"/>
<polygon fill="black" stroke="black" points="348.43,-315.99 344.85,-306.02 341.43,-316.05 348.43,-315.99"/>
</g>
<!-- 14 -->
<g id="node15" class="node">
<title>14</title>
<path fill="#8139e5" stroke="black" d="M529,-298.5C529,-298.5 436,-298.5 436,-298.5 430,-298.5 424,-292.5 424,-286.5 424,-286.5 424,-242.5 424,-242.5 424,-236.5 430,-230.5 436,-230.5 436,-230.5 529,-230.5 529,-230.5 535,-230.5 541,-236.5 541,-242.5 541,-242.5 541,-286.5 541,-286.5 541,-292.5 535,-298.5 529,-298.5"/>
<text text-anchor="start" x="454.5" y="-283.3" font-family="Helvetica,sans-Serif" font-size="14.00">gini = 0.0</text>
<text text-anchor="start" x="441.5" y="-268.3" font-family="Helvetica,sans-Serif" font-size="14.00">samples = 37</text>
<text text-anchor="start" x="432" y="-253.3" font-family="Helvetica,sans-Serif" font-size="14.00">value = [0, 0, 37]</text>
<text text-anchor="start" x="455" y="-238.3" font-family="Helvetica,sans-Serif" font-size="14.00">class = e</text>
</g>
<!-- 10&#45;&gt;14 -->
<g id="edge14" class="edge">
<title>10&#45;&gt;14</title>
<path fill="none" stroke="black" d="M393.03,-341.91C406.86,-330.1 421.94,-317.22 435.72,-305.45"/>
<polygon fill="black" stroke="black" points="438.33,-307.82 443.66,-298.67 433.79,-302.5 438.33,-307.82"/>
</g>
<!-- 12 -->
<g id="node13" class="node">
<title>12</title>
<path fill="#8139e5" stroke="black" d="M386.5,-179.5C386.5,-179.5 300.5,-179.5 300.5,-179.5 294.5,-179.5 288.5,-173.5 288.5,-167.5 288.5,-167.5 288.5,-123.5 288.5,-123.5 288.5,-117.5 294.5,-111.5 300.5,-111.5 300.5,-111.5 386.5,-111.5 386.5,-111.5 392.5,-111.5 398.5,-117.5 398.5,-123.5 398.5,-123.5 398.5,-167.5 398.5,-167.5 398.5,-173.5 392.5,-179.5 386.5,-179.5"/>
<text text-anchor="start" x="315.5" y="-164.3" font-family="Helvetica,sans-Serif" font-size="14.00">gini = 0.0</text>
<text text-anchor="start" x="306" y="-149.3" font-family="Helvetica,sans-Serif" font-size="14.00">samples = 3</text>
<text text-anchor="start" x="296.5" y="-134.3" font-family="Helvetica,sans-Serif" font-size="14.00">value = [0, 0, 3]</text>
<text text-anchor="start" x="316" y="-119.3" font-family="Helvetica,sans-Serif" font-size="14.00">class = e</text>
</g>
<!-- 11&#45;&gt;12 -->
<g id="edge12" class="edge">
<title>11&#45;&gt;12</title>
<path fill="none" stroke="black" d="M344.15,-222.91C344.06,-212.2 343.96,-200.62 343.87,-189.78"/>
<polygon fill="black" stroke="black" points="347.37,-189.64 343.78,-179.67 340.37,-189.7 347.37,-189.64"/>
</g>
<!-- 13 -->
<g id="node14" class="node">
<title>13</title>
<path fill="#39e581" stroke="black" d="M514.5,-179.5C514.5,-179.5 428.5,-179.5 428.5,-179.5 422.5,-179.5 416.5,-173.5 416.5,-167.5 416.5,-167.5 416.5,-123.5 416.5,-123.5 416.5,-117.5 422.5,-111.5 428.5,-111.5 428.5,-111.5 514.5,-111.5 514.5,-111.5 520.5,-111.5 526.5,-117.5 526.5,-123.5 526.5,-123.5 526.5,-167.5 526.5,-167.5 526.5,-173.5 520.5,-179.5 514.5,-179.5"/>
<text text-anchor="start" x="443.5" y="-164.3" font-family="Helvetica,sans-Serif" font-size="14.00">gini = 0.0</text>
<text text-anchor="start" x="434" y="-149.3" font-family="Helvetica,sans-Serif" font-size="14.00">samples = 1</text>
<text text-anchor="start" x="424.5" y="-134.3" font-family="Helvetica,sans-Serif" font-size="14.00">value = [0, 1, 0]</text>
<text text-anchor="start" x="444" y="-119.3" font-family="Helvetica,sans-Serif" font-size="14.00">class = p</text>
</g>
<!-- 11&#45;&gt;13 -->
<g id="edge13" class="edge">
<title>11&#45;&gt;13</title>
<path fill="none" stroke="black" d="M388.56,-222.91C401.38,-211.1 415.36,-198.22 428.14,-186.45"/>
<polygon fill="black" stroke="black" points="430.52,-189.02 435.5,-179.67 425.77,-183.87 430.52,-189.02"/>
</g>
</g>
</svg>