<?xml version="1.0" encoding="UTF-8" standalone="no"?>
<!DOCTYPE svg PUBLIC "-//W3C//DTD SVG 1.1//EN"
 "http://www.w3.org/Graphics/SVG/1.1/DTD/svg11.dtd">
<!-- Generated by graphviz version 2.43.0 (0)
 -->
<!-- Title: Tree Pages: 1 -->
<svg width="548pt" height="671pt"
 viewBox="0.00 0.00 548.00 671.00" xmlns="http://www.w3.org/2000/svg" xmlns:xlink="http://www.w3.org/1999/xlink">
<g id="graph0" class="graph" transform="scale(1 1) rotate(0) translate(4 667)">
<title>Tree</title>
<polygon fill="white" stroke="transparent" points="-4,4 -4,-667 544,-667 544,4 -4,4"/>
<!-- 0 -->
<g id="node1" class="node">
<title>0</title>
<path fill="#f7f3fd" stroke="black" d="M253.5,-663C253.5,-663 145.5,-663 145.5,-663 139.5,-663 133.5,-657 133.5,-651 133.5,-651 133.5,-592 133.5,-592 133.5,-586 139.5,-580 145.5,-580 145.5,-580 253.5,-580 253.5,-580 259.5,-580 265.5,-586 265.5,-592 265.5,-592 265.5,-651 265.5,-651 265.5,-657 259.5,-663 253.5,-663"/>
<text text-anchor="start" x="148" y="-647.8" font-family="Helvetica,sans-Serif" font-size="14.00">petal_width ≤ 0.8</text>
<text text-anchor="start" x="164" y="-632.8" font-family="Helvetica,sans-Serif" font-size="14.00">gini = 0.665</text>
<text text-anchor="start" x="154.5" y="-617.8" font-family="Helvetica,sans-Serif" font-size="14.00">samples = 120</text>
<text text-anchor="start" x="141.5" y="-602.8" font-family="Helvetica,sans-Serif" font-size="14.00">value = [39, 37, 44]</text>
<text text-anchor="start" x="172" y="-587.8" font-family="Helvetica,sans-Serif" font-size="14.00">class = e</text>
</g>
<!-- 1 -->
<g id="node2" class="node">
<title>1</title>
<path fill="#e58139" stroke="black" d="M176,-536.5C176,-536.5 83,-536.5 83,-536.5 77,-536.5 71,-530.5 71,-524.5 71,-524.5 71,-480.5 71,-480.5 71,-474.5 77,-468.5 83,-468.5 83,-468.5 176,-468.5 176,-468.5 182,-468.5 188,-474.5 188,-480.5 188,-480.5 188,-524.5 188,-524.5 188,-530.5 182,-536.5 176,-536.5"/>
<text text-anchor="start" x="101.5" y="-521.3" font-family="Helvetica,sans-Serif" font-size="14.00">gini = 0.0</text>
<text text-anchor="start" x="88.5" y="-506.3" font-family="Helvetica,sans-Serif" font-size="14.00">samples = 39</text>
<text text-anchor="start" x="79" y="-491.3" font-family="Helvetica,sans-Serif" font-size="14.00">value = [39, 0, 0]</text>
<text text-anchor="start" x="102.5" y="-476.3" font-family="Helvetica,sans-Serif" font-size="14.00">class = s</text>
</g>
<!-- 0&#45;&gt;1 -->
<g id="edge1" class="edge">
<title>0&#45;&gt;1</title>
<path fill="none" stroke="black" d="M175.21,-579.91C168.55,-568.76 161.3,-556.66 154.59,-545.44"/>
<polygon fill="black" stroke="black" points="157.48,-543.45 149.34,-536.67 151.47,-547.05 157.48,-543.45"/>
<text text-anchor="middle" x="143.25" y="-557.21" font-family="Helvetica,sans-Serif" font-size="14.00">True</text>
</g>
<!-- 2 -->
<g id="node3" class="node">
<title>2</title>
<path fill="#ebe0fb" stroke="black" d="M320.5,-544C320.5,-544 218.5,-544 218.5,-544 212.5,-544 206.5,-538 206.5,-532 206.5,-532 206.5,-473 206.5,-473 206.5,-467 212.5,-461 218.5,-461 218.5,-461 320.5,-461 320.5,-461 326.5,-461 332.5,-467 332.5,-473 332.5,-473 332.5,-532 332.5,-532 332.5,-538 326.5,-544 320.5,-544"/>
<text text-anchor="start" x="214.5" y="-528.8" font-family="Helvetica,sans-Serif" font-size="14.00">petal_width ≤ 1.65</text>
<text text-anchor="start" x="234" y="-513.8" font-family="Helvetica,sans-Serif" font-size="14.00">gini = 0.496</text>
<text text-anchor="start" x="228.5" y="-498.8" font-family="Helvetica,sans-Serif" font-size="14.00">samples = 81</text>
<text text-anchor="start" x="215" y="-483.8" font-family="Helvetica,sans-Serif" font-size="14.00">value = [0, 37, 44]</text>
<text text-anchor="start" x="242" y="-468.8" font-family="Helvetica,sans-Serif" font-size="14.00">class = e</text>
</g>
<!-- 0&#45;&gt;2 -->
<g id="edge2" class="edge">
<title>0&#45;&gt;2</title>
<path fill="none" stroke="black" d="M223.79,-579.91C229.05,-571.1 234.68,-561.7 240.12,-552.61"/>
<polygon fill="black" stroke="black" points="243.13,-554.4 245.26,-544.02 237.12,-550.81 243.13,-554.4"/>
<text text-anchor="middle" x="251.35" y="-564.57" font-family="Helvetica,sans-Serif" font-size="14.00">False</text>
</g>
<!-- 3 -->
<g id="node4" class="node">
<title>3</title>
<path fill="#4fe88f" stroke="black" d="M249,-425C249,-425 142,-425 142,-425 136,-425 130,-419 130,-413 130,-413 130,-354 130,-354 130,-348 136,-342 142,-342 142,-342 249,-342 249,-342 255,-342 261,-348 261,-354 261,-354 261,-413 261,-413 261,-419 255,-425 249,-425"/>
<text text-anchor="start" x="138" y="-409.8" font-family="Helvetica,sans-Serif" font-size="14.00">petal_length ≤ 4.95</text>
<text text-anchor="start" x="163.5" y="-394.8" font-family="Helvetica,sans-Serif" font-size="14.00">gini = 0.18</text>
<text text-anchor="start" x="154.5" y="-379.8" font-family="Helvetica,sans-Serif" font-size="14.00">samples = 40</text>
<text text-anchor="start" x="145" y="-364.8" font-family="Helvetica,sans-Serif" font-size="14.00">value = [0, 36, 4]</text>
<text text-anchor="start" x="168" y="-349.8" font-family="Helvetica,sans-Serif" font-size="14.00">class = p</text>
</g>
<!-- 2&#45;&gt;3 -->
<g id="edge3" class="edge">
<title>2&#45;&gt;3</title>
<path fill="none" stroke="black" d="M243.83,-460.91C238.26,-452.1 232.31,-442.7 226.56,-433.61"/>
<polygon fill="black" stroke="black" points="229.43,-431.6 221.13,-425.02 223.52,-435.34 229.43,-431.6"/>
</g>
<!-- 10 -->
<g id="node11" class="node">
<title>10</title>
<path fill="#843ee6" stroke="black" d="M398,-425C398,-425 291,-425 291,-425 285,-425 279,-419 279,-413 279,-413 279,-354 279,-354 279,-348 285,-342 291,-342 291,-342 398,-342 398,-342 404,-342 410,-348 410,-354 410,-354 410,-413 410,-413 410,-419 404,-425 398,-425"/>
<text text-anchor="start" x="287" y="-409.8" font-family="Helvetica,sans-Serif" font-size="14.00">petal_length ≤ 4.85</text>
<text text-anchor="start" x="309" y="-394.8" font-family="Helvetica,sans-Serif" font-size="14.00">gini = 0.048</text>
<text text-anchor="start" x="303.5" y="-379.8" font-family="Helvetica,sans-Serif" font-size="14.00">samples = 41</text>
<text text-anchor="start" x="294" y="-364.8" font-family="Helvetica,sans-Serif" font-size="14.00">value = [0, 1, 40]</text>
<text text-anchor="start" x="317" y="-349.8" font-family="Helvetica,sans-Serif" font-size="14.00">class = e</text>
</g>
<!-- 2&#45;&gt;10 -->
<g id="edge10" class="edge">
<title>2&#45;&gt;10</title>
<path fill="none" stroke="black" d="M295.52,-460.91C301.16,-452.1 307.19,-442.7 313.02,-433.61"/>
<polygon fill="black" stroke="black" points="316.07,-435.33 318.53,-425.02 310.18,-431.55 316.07,-435.33"/>
</g>
<!-- 4 -->
<g id="node5" class="node">
<title>4</title>
<path fill="#39e581" stroke="black" d="M105,-298.5C105,-298.5 12,-298.5 12,-298.5 6,-298.5 0,-292.5 0,-286.5 0,-286.5 0,-242.5 0,-242.5 0,-236.5 6,-230.5 12,-230.5 12,-230.5 105,-230.5 105,-230.5 111,-230.5 117,-236.5 117,-242.5 117,-242.5 117,-286.5 117,-286.5 117,-292.5 111,-298.5 105,-298.5"/>
<text text-anchor="start" x="30.5" y="-283.3" font-family="Helvetica,sans-Serif" font-size="14.00">gini = 0.0</text>
<text text-anchor="start" x="17.5" y="-268.3" font-family="Helvetica,sans-Serif" font-size="14.00">samples = 35</text>
<text text-anchor="start" x="8" y="-253.3" font-family="Helvetica,sans-Serif" font-size="14.00">value = [0, 35, 0]</text>
<text text-anchor="start" x="31" y="-238.3" font-family="Helvetica,sans-Serif" font-size="14.00">class = p</text>
</g>
<!-- 3&#45;&gt;4 -->
<g id="edge4" class="edge">
<title>3&#45;&gt;4</title>
<path fill="none" stroke="black" d="M147.97,-341.91C134.14,-330.1 119.06,-317.22 105.28,-305.45"/>
<polygon fill="black" stroke="black" points="107.21,-302.5 97.34,-298.67 102.67,-307.82 107.21,-302.5"/>
</g>
<!-- 5 -->
<g id="node6" class="node">
<title>5</title>
<path fill="#a06aec" stroke="black" d="M249.5,-306C249.5,-306 147.5,-306 147.5,-306 141.5,-306 135.5,-300 135.5,-294 135.5,-294 135.5,-235 135.5,-235 135.5,-229 141.5,-223 147.5,-223 147.5,-223 249.5,-223 249.5,-223 255.5,-223 261.5,-229 261.5,-235 261.5,-235 261.5,-294 261.5,-294 261.5,-300 255.5,-306 249.5,-306"/>
<text text-anchor="start" x="143.5" y="-290.8" font-family="Helvetica,sans-Serif" font-size="14.00">petal_width ≤ 1.55</text>
<text text-anchor="start" x="166.5" y="-275.8" font-family="Helvetica,sans-Serif" font-size="14.00">gini = 0.32</text>
<text text-anchor="start" x="161" y="-260.8" font-family="Helvetica,sans-Serif" font-size="14.00">samples = 5</text>
<text text-anchor="start" x="151.5" y="-245.8" font-family="Helvetica,sans-Serif" font-size="14.00">value = [0, 1, 4]</text>
<text text-anchor="start" x="171" y="-230.8" font-family="Helvetica,sans-Serif" font-size="14.00">class = e</text>
</g>
<!-- 3&#45;&gt;5 -->
<g id="edge5" class="edge">
<title>3&#45;&gt;5</title>
<path fill="none" stroke="black" d="M196.54,-341.91C196.75,-333.56 196.98,-324.67 197.2,-316.02"/>
<polygon fill="black" stroke="black" points="200.7,-316.11 197.46,-306.02 193.71,-315.93 200.7,-316.11"/>
</g>
<!-- 6 -->
<g id="node7" class="node">
<title>6</title>
<path fill="#8139e5" stroke="black" d="M104.5,-179.5C104.5,-179.5 18.5,-179.5 18.5,-179.5 12.5,-179.5 6.5,-173.5 6.5,-167.5 6.5,-167.5 6.5,-123.5 6.5,-123.5 6.5,-117.5 12.5,-111.5 18.5,-111.5 18.5,-111.5 104.5,-111.5 104.5,-111.5 110.5,-111.5 116.5,-117.5 116.5,-123.5 116.5,-123.5 116.5,-167.5 116.5,-167.5 116.5,-173.5 110.5,-179.5 104.5,-179.5"/>
<text text-anchor="start" x="33.5" y="-164.3" font-family="Helvetica,sans-Serif" font-size="14.00">gini = 0.0</text>
<text text-anchor="start" x="24" y="-149.3" font-family="Helvetica,sans-Serif" font-size="14.00">samples = 3</text>
<text text-anchor="start" x="14.5" y="-134.3" font-family="Helvetica,sans-Serif" font-size="14.00">value = [0, 0, 3]</text>
<text text-anchor="start" x="34" y="-119.3" font-family="Helvetica,sans-Serif" font-size="14.00">class = e</text>
</g>
<!-- 5&#45;&gt;6 -->
<g id="edge6" class="edge">
<title>5&#45;&gt;6</title>
<path fill="none" stroke="black" d="M150.97,-222.91C137.14,-211.1 122.06,-198.22 108.28,-186.45"/>
<polygon fill="black" stroke="black" points="110.21,-183.5 100.34,-179.67 105.67,-188.82 110.21,-183.5"/>
</g>
<!-- 7 -->
<g id="node8" class="node">
<title>7</title>
<path fill="#ffffff" stroke="black" d="M252,-187C252,-187 147,-187 147,-187 141,-187 135,-181 135,-175 135,-175 135,-116 135,-116 135,-110 141,-104 147,-104 147,-104 252,-104 252,-104 258,-104 264,-110 264,-116 264,-116 264,-175 264,-175 264,-181 258,-187 252,-187"/>
<text text-anchor="start" x="143" y="-171.8" font-family="Helvetica,sans-Serif" font-size="14.00">sepal_width ≤ 2.85</text>
<text text-anchor="start" x="171.5" y="-156.8" font-family="Helvetica,sans-Serif" font-size="14.00">gini = 0.5</text>
<text text-anchor="start" x="162" y="-141.8" font-family="Helvetica,sans-Serif" font-size="14.00">samples = 2</text>
<text text-anchor="start" x="152.5" y="-126.8" font-family="Helvetica,sans-Serif" font-size="14.00">value = [0, 1, 1]</text>
<text text-anchor="start" x="172" y="-111.8" font-family="Helvetica,sans-Serif" font-size="14.00">class = p</text>
</g>
<!-- 5&#45;&gt;7 -->
<g id="edge7" class="edge">
<title>5&#45;&gt;7</title>
<path fill="none" stroke="black" d="M198.85,-222.91C198.92,-214.65 198.99,-205.86 199.07,-197.3"/>
<polygon fill="black" stroke="black" points="202.57,-197.05 199.15,-187.02 195.57,-196.99 202.57,-197.05"/>
</g>
<!-- 8 -->
<g id="node9" class="node">
<title>8</title>
<path fill="#39e581" stroke="black" d="M178.5,-68C178.5,-68 92.5,-68 92.5,-68 86.5,-68 80.5,-62 80.5,-56 80.5,-56 80.5,-12 80.5,-12 80.5,-6 86.5,0 92.5,0 92.5,0 178.5,0 178.5,0 184.5,0 190.5,-6 190.5,-12 190.5,-12 190.5,-56 190.5,-56 190.5,-62 184.5,-68 178.5,-68"/>
<text text-anchor="start" x="107.5" y="-52.8" font-family="Helvetica,sans-Serif" font-size="14.00">gini = 0.0</text>
<text text-anchor="start" x="98" y="-37.8" font-family="Helvetica,sans-Serif" font-size="14.00">samples = 1</text>
<text text-anchor="start" x="88.5" y="-22.8" font-family="Helvetica,sans-Serif" font-size="14.00">value = [0, 1, 0]</text>
<text text-anchor="start" x="108" y="-7.8" font-family="Helvetica,sans-Serif" font-size="14.00">class = p</text>
</g>
<!-- 7&#45;&gt;8 -->
<g id="edge8" class="edge">
<title>7&#45;&gt;8</title>
<path fill="none" stroke="black" d="M175.67,-103.73C170.6,-95.06 165.25,-85.9 160.15,-77.18"/>
<polygon fill="black" stroke="black" points="163.03,-75.17 154.96,-68.3 156.99,-78.7 163.03,-75.17"/>
</g>
<!-- 9 -->
<g id="node10" class="node">
<title>9</title>
<path fill="#8139e5" stroke="black" d="M306.5,-68C306.5,-68 220.5,-68 220.5,-68 214.5,-68 208.5,-62 208.5,-56 208.5,-56 208.5,-12 208.5,-12 208.5,-6 214.5,0 220.5,0 220.5,0 306.5,0 306.5,0 312.5,0 318.5,-6 318.5,-12 318.5,-12 318.5,-56 318.5,-56 318.5,-62 312.5,-68 306.5,-68"/>
<text text-anchor="start" x="235.5" y="-52.8" font-family="Helvetica,sans-Serif" font-size="14.00">gini = 0.0</text>
<text text-anchor="start" x="226" y="-37.8" font-family="Helvetica,sans-Serif" font-size="14.00">samples = 1</text>
<text text-anchor="start" x="216.5" y="-22.8" font-family="Helvetica,sans-Serif" font-size="14.00">value = [0, 0, 1]</text>
<text text-anchor="start" x="236" y="-7.8" font-family="Helvetica,sans-Serif" font-size="14.00">class = e</text>
</g>
<!-- 7&#45;&gt;9 -->
<g id="edge9" class="edge">
<title>7&#45;&gt;9</title>
<path fill="none" stroke="black" d="M223.33,-103.73C228.4,-95.06 233.75,-85.9 238.85,-77.18"/>
<polygon fill="black" stroke="black" points="242.01,-78.7 244.04,-68.3 235.97,-75.17 242.01,-78.7"/>
</g>
<!-- 11 -->
<g id="node12" class="node">
<title>11</title>
<path fill="#ab7bee" stroke="black" d="M392.5,-306C392.5,-306 294.5,-306 294.5,-306 288.5,-306 282.5,-300 282.5,-294 282.5,-294 282.5,-235 282.5,-235 282.5,-229 288.5,-223 294.5,-223 294.5,-223 392.5,-223 392.5,-223 398.5,-223 404.5,-229 404.5,-235 404.5,-235 404.5,-294 404.5,-294 404.5,-300 398.5,-306 392.5,-306"/>
<text text-anchor="start" x="290.5" y="-290.8" font-family="Helvetica,sans-Serif" font-size="14.00">sepal_width ≤ 3.1</text>
<text text-anchor="start" x="308" y="-275.8" font-family="Helvetica,sans-Serif" font-size="14.00">gini = 0.375</text>
<text text-anchor="start" x="306" y="-260.8" font-family="Helvetica,sans-Serif" font-size="14.00">samples = 4</text>
<text text-anchor="start" x="296.5" y="-245.8" font-family="Helvetica,sans-Serif" font-size="14.00">value = [0, 1, 3]</text>
<text text-anchor="start" x="316" y="-230.8" font-family="Helvetica,sans-Serif" font-size="14.00">class = e</text>
</g>
<!-- 10&#45;&gt;11 -->
<g id="edge11" class="edge">
<title>10&#45;&gt;11</title>
<path fill="none" stroke="black" d="M344.15,-341.91C344.08,-333.65 344.01,-324.86 343.93,-316.3"/>
<polygon fill="black" stroke="black" points="347.43,-315.99 343.85,-306.02 340.43,-316.05 347.43,-315.99"/>
</g>
<!-- 14 -->
<g id="node15" class="node">
<title>14</title>
<path fill="#8139e5" stroke="black" d="M528,-298.5C528,-298.5 435,-298.5 435,-298.5 429,-298.5 423,-292.5 423,-286.5 423,-286.5 423,-242.5 423,-242.5 423,-236.5 429,-230.5 435,-230.5 435,-230.5 528,-230.5 528,-230.5 534,-230.5 540,-236.5 540,-242.5 540,-242.5 540,-286.5 540,-286.5 540,-292.5 534,-298.5 528,-298.5"/>
<text text-anchor="start" x="453.5" y="-283.3" font-family="Helvetica,sans-Serif" font-size="14.00">gini = 0.0</text>
<text text-anchor="start" x="440.5" y="-268.3" font-family="Helvetica,sans-Serif" font-size="14.00">samples = 37</text>
<text text-anchor="start" x="431" y="-253.3" font-family="Helvetica,sans-Serif" font-size="14.00">value = [0, 0, 37]</text>
<text text-anchor="start" x="454" y="-238.3" font-family="Helvetica,sans-Serif" font-size="14.00">class = e</text>
</g>
<!-- 10&#45;&gt;14 -->
<g id="edge14" class="edge">
<title>10&#45;&gt;14</title>
<path fill="none" stroke="black" d="M392.03,-341.91C405.86,-330.1 420.94,-317.22 434.72,-305.45"/>
<polygon fill="black" stroke="black" points="437.33,-307.82 442.66,-298.67 432.79,-302.5 437.33,-307.82"/>
</g>
<!-- 12 -->
<g id="node13" class="node">
<title>12</title>
<path fill="#8139e5" stroke="black" d="M385.5,-179.5C385.5,-179.5 299.5,-179.5 299.5,-179.5 293.5,-179.5 287.5,-173.5 287.5,-167.5 287.5,-167.5 287.5,-123.5 287.5,-123.5 287.5,-117.5 293.5,-111.5 299.5,-111.5 299.5,-111.5 385.5,-111.5 385.5,-111.5 391.5,-111.5 397.5,-117.5 397.5,-123.5 397.5,-123.5 397.5,-167.5 397.5,-167.5 397.5,-173.5 391.5,-179.5 385.5,-179.5"/>
<text text-anchor="start" x="314.5" y="-164.3" font-family="Helvetica,sans-Serif" font-size="14.00">gini = 0.0</text>
<text text-anchor="start" x="305" y="-149.3" font-family="Helvetica,sans-Serif" font-size="14.00">samples = 3</text>
<text text-anchor="start" x="295.5" y="-134.3" font-family="Helvetica,sans-Serif" font-size="14.00">value = [0, 0, 3]</text>
<text text-anchor="start" x="315" y="-119.3" font-family="Helvetica,sans-Serif" font-size="14.00">class = e</text>
</g>
<!-- 11&#45;&gt;12 -->
<g id="edge12" class="edge">
<title>11&#45;&gt;12</title>
<path fill="none" stroke="black" d="M343.15,-222.91C343.06,-212.2 342.96,-200.62 342.87,-189.78"/>
<polygon fill="black" stroke="black" points="346.37,-189.64 342.78,-179.67 339.37,-189.7 346.37,-189.64"/>
</g>
<!-- 13 -->
<g id="node14" class="node">
<title>13</title>
<path fill="#39e581" stroke="black" d="M513.5,-179.5C513.5,-179.5 427.5,-179.5 427.5,-179.5 421.5,-179.5 415.5,-173.5 415.5,-167.5 415.5,-167.5 415.5,-123.5 415.5,-123.5 415.5,-117.5 421.5,-111.5 427.5,-111.5 427.5,-111.5 513.5,-111.5 513.5,-111.5 519.5,-111.5 525.5,-117.5 525.5,-123.5 525.5,-123.5 525.5,-167.5 525.5,-167.5 525.5,-173.5 519.5,-179.5 513.5,-179.5"/>
<text text-anchor="start" x="442.5" y="-164.3" font-family="Helvetica,sans-Serif" font-size="14.00">gini = 0.0</text>
<text text-anchor="start" x="433" y="-149.3" font-family="Helvetica,sans-Serif" font-size="14.00">samples = 1</text>
<text text-anchor="start" x="423.5" y="-134.3" font-family="Helvetica,sans-Serif" font-size="14.00">value = [0, 1, 0]</text>
<text text-anchor="start" x="443" y="-119.3" font-family="Helvetica,sans-Serif" font-size="14.00">class = p</text>
</g>
<!-- 11&#45;&gt;13 -->
<g id="edge13" class="edge">
<title>11&#45;&gt;13</title>
<path fill="none" stroke="black" d="M387.56,-222.91C400.38,-211.1 414.36,-198.22 427.14,-186.45"/>
<polygon fill="black" stroke="black" points="429.52,-189.02 434.5,-179.67 424.77,-183.87 429.52,-189.02"/>
</g>
</g>
</svg>