<?xml version="1.0" encoding="UTF-8" standalone="no"?>
<!DOCTYPE svg PUBLIC "-//W3C//DTD SVG 1.1//EN"
 "http://www.w3.org/Graphics/SVG/1.1/DTD/svg11.dtd">
<!-- Generated by graphviz version 2.43.0 (0)
 -->
<!-- Title: Tree Pages: 1 -->
<svg width="605pt" height="671pt"
 viewBox="0.00 0.00 604.50 671.00" xmlns="http://www.w3.org/2000/svg" xmlns:xlink="http://www.w3.org/1999/xlink">
<g id="graph0" class="graph" transform="scale(1 1) rotate(0) translate(4 667)">
<title>Tree</title>
<polygon fill="white" stroke="transparent" points="-4,4 -4,-667 600.5,-667 600.5,4 -4,4"/>
<!-- 0 -->
<g id="node1" class="node">
<title>0</title>
<path fill="#f7f3fd" stroke="black" d="M310,-663C310,-663 202,-663 202,-663 196,-663 190,-657 190,-651 190,-651 190,-592 190,-592 190,-586 196,-580 202,-580 202,-580 310,-580 310,-580 316,-580 322,-586 322,-592 322,-592 322,-651 322,-651 322,-657 316,-663 310,-663"/>
<text text-anchor="start" x="202" y="-647.8" font-family="Helvetica,sans-Serif" font-size="14.00">petal_length ≤ 2.6</text>
<text text-anchor="start" x="220.5" y="-632.8" font-family="Helvetica,sans-Serif" font-size="14.00">gini = 0.665</text>
<text text-anchor="start" x="211" y="-617.8" font-family="Helvetica,sans-Serif" font-size="14.00">samples = 120</text>
<text text-anchor="start" x="198" y="-602.8" font-family="Helvetica,sans-Serif" font-size="14.00">value = [39, 37, 44]</text>
<text text-anchor="start" x="228.5" y="-587.8" font-family="Helvetica,sans-Serif" font-size="14.00">class = e</text>
</g>
<!-- 1 -->
<g id="node2" class="node">
<title>1</title>
<path fill="#e58139" stroke="black" d="M232.5,-536.5C232.5,-536.5 139.5,-536.5 139.5,-536.5 133.5,-536.5 127.5,-530.5 127.5,-524.5 127.5,-524.5 127.5,-480.5 127.5,-480.5 127.5,-474.5 133.5,-468.5 139.5,-468.5 139.5,-468.5 232.5,-468.5 232.5,-468.5 238.5,-468.5 244.5,-474.5 244.5,-480.5 244.5,-480.5 244.5,-524.5 244.5,-524.5 244.5,-530.5 238.5,-536.5 232.5,-536.5"/>
<text text-anchor="start" x="158" y="-521.3" font-family="Helvetica,sans-Serif" font-size="14.00">gini = 0.0</text>
<text text-anchor="start" x="145" y="-506.3" font-family="Helvetica,sans-Serif" font-size="14.00">samples = 39</text>
<text text-anchor="start" x="135.5" y="-491.3" font-family="Helvetica,sans-Serif" font-size="14.00">value = [39, 0, 0]</text>
<text text-anchor="start" x="159" y="-476.3" font-family="Helvetica,sans-Serif" font-size="14.00">class = s</text>
</g>
<!-- 0&#45;&gt;1 -->
<g id="edge1" class="edge">
<title>0&#45;&gt;1</title>
<path fill="none" stroke="black" d="M231.71,-579.91C225.05,-568.76 217.8,-556.66 211.09,-545.44"/>
<polygon fill="black" stroke="black" points="213.98,-543.45 205.84,-536.67 207.97,-547.05 213.98,-543.45"/>
<text text-anchor="middle" x="199.75" y="-557.21" font-family="Helvetica,sans-Serif" font-size="14.00">True</text>
</g>
<!-- 2 -->
<g id="node3" class="node">
<title>2</title>
<path fill="#ebe0fb" stroke="black" d="M377,-544C377,-544 275,-544 275,-544 269,-544 263,-538 263,-532 263,-532 263,-473 263,-473 263,-467 269,-461 275,-461 275,-461 377,-461 377,-461 383,-461 389,-467 389,-473 389,-473 389,-532 389,-532 389,-538 383,-544 377,-544"/>
<text text-anchor="start" x="271" y="-528.8" font-family="Helvetica,sans-Serif" font-size="14.00">petal_width ≤ 1.65</text>
<text text-anchor="start" x="290.5" y="-513.8" font-family="Helvetica,sans-Serif" font-size="14.00">gini = 0.496</text>
<text text-anchor="start" x="285" y="-498.8" font-family="Helvetica,sans-Serif" font-size="14.00">samples = 81</text>
<text text-anchor="start" x="271.5" y="-483.8" font-family="Helvetica,sans-Serif" font-size="14.00">value = [0, 37, 44]</text>
<text text-anchor="start" x="298.5" y="-468.8" font-family="Helvetica,sans-Serif" font-size="14.00">class = e</text>
</g>
<!-- 0&#45;&gt;2 -->
<g id="edge2" class="edge">
<title>0&#45;&gt;2</title>
<path fill="none" stroke="black" d="M280.29,-579.91C285.55,-571.1 291.18,-561.7 296.62,-552.61"/>
<polygon fill="black" stroke="black" points="299.63,-554.4 301.76,-544.02 293.62,-550.81 299.63,-554.4"/>
<text text-anchor="middle" x="307.85" y="-564.57" font-family="Helvetica,sans-Serif" font-size="14.00">False</text>
</g>
<!-- 3 -->
<g id="node4" class="node">
<title>3</title>
<path fill="#4fe88f" stroke="black" d="M305.5,-425C305.5,-425 198.5,-425 198.5,-425 192.5,-425 186.5,-419 186.5,-413 186.5,-413 186.5,-354 186.5,-354 186.5,-348 192.5,-342 198.5,-342 198.5,-342 305.5,-342 305.5,-342 311.5,-342 317.5,-348 317.5,-354 317.5,-354 317.5,-413 317.5,-413 317.5,-419 311.5,-425 305.5,-425"/>
<text text-anchor="start" x="194.5" y="-409.8" font-family="Helvetica,sans-Serif" font-size="14.00">petal_length ≤ 4.95</text>
<text text-anchor="start" x="220" y="-394.8" font-family="Helvetica,sans-Serif" font-size="14.00">gini = 0.18</text>
<text text-anchor="start" x="211" y="-379.8" font-family="Helvetica,sans-Serif" font-size="14.00">samples = 40</text>
<text text-anchor="start" x="201.5" y="-364.8" font-family="Helvetica,sans-Serif" font-size="14.00">value = [0, 36, 4]</text>
<text text-anchor="start" x="224.5" y="-349.8" font-family="Helvetica,sans-Serif" font-size="14.00">class = p</text>
</g>
<!-- 2&#45;&gt;3 -->
<g id="edge3" class="edge">
<title>2&#45;&gt;3</title>
<path fill="none" stroke="black" d="M300.33,-460.91C294.76,-452.1 288.81,-442.7 283.06,-433.61"/>
<polygon fill="black" stroke="black" points="285.93,-431.6 277.63,-425.02 280.02,-435.34 285.93,-431.6"/>
</g>
<!-- 10 -->
<g id="node11" class="node">
<title>10</title>
<path fill="#843ee6" stroke="black" d="M454.5,-425C454.5,-425 347.5,-425 347.5,-425 341.5,-425 335.5,-419 335.5,-413 335.5,-413 335.5,-354 335.5,-354 335.5,-348 341.5,-342 347.5,-342 347.5,-342 454.5,-342 454.5,-342 460.5,-342 466.5,-348 466.5,-354 466.5,-354 466.5,-413 466.5,-413 466.5,-419 460.5,-425 454.5,-425"/>
<text text-anchor="start" x="343.5" y="-409.8" font-family="Helvetica,sans-Serif" font-size="14.00">petal_length ≤ 4.85</text>
<text text-anchor="start" x="365.5" y="-394.8" font-family="Helvetica,sans-Serif" font-size="14.00">gini = 0.048</text>
<text text-anchor="start" x="360" y="-379.8" font-family="Helvetica,sans-Serif" font-size="14.00">samples = 41</text>
<text text-anchor="start" x="350.5" y="-364.8" font-family="Helvetica,sans-Serif" font-size="14.00">value = [0, 1, 40]</text>
<text text-anchor="start" x="373.5" y="-349.8" font-family="Helvetica,sans-Serif" font-size="14.00">class = e</text>
</g>
<!-- 2&#45;&gt;10 -->
<g id="edge10" class="edge">
<title>2&#45;&gt;10</title>
<path fill="none" stroke="black" d="M352.02,-460.91C357.66,-452.1 363.69,-442.7 369.52,-433.61"/>
<polygon fill="black" stroke="black" points="372.57,-435.33 375.03,-425.02 366.68,-431.55 372.57,-435.33"/>
</g>
<!-- 4 -->
<g id="node5" class="node">
<title>4</title>
<path fill="#39e581" stroke="black" d="M155.5,-298.5C155.5,-298.5 62.5,-298.5 62.5,-298.5 56.5,-298.5 50.5,-292.5 50.5,-286.5 50.5,-286.5 50.5,-242.5 50.5,-242.5 50.5,-236.5 56.5,-230.5 62.5,-230.5 62.5,-230.5 155.5,-230.5 155.5,-230.5 161.5,-230.5 167.5,-236.5 167.5,-242.5 167.5,-242.5 167.5,-286.5 167.5,-286.5 167.5,-292.5 161.5,-298.5 155.5,-298.5"/>
<text text-anchor="start" x="81" y="-283.3" font-family="Helvetica,sans-Serif" font-size="14.00">gini = 0.0</text>
<text text-anchor="start" x="68" y="-268.3" font-family="Helvetica,sans-Serif" font-size="14.00">samples = 35</text>
<text text-anchor="start" x="58.5" y="-253.3" font-family="Helvetica,sans-Serif" font-size="14.00">value = [0, 35, 0]</text>
<text text-anchor="start" x="81.5" y="-238.3" font-family="Helvetica,sans-Serif" font-size="14.00">class = p</text>
</g>
<!-- 3&#45;&gt;4 -->
<g id="edge4" class="edge">
<title>3&#45;&gt;4</title>
<path fill="none" stroke="black" d="M202.39,-341.91C187.82,-329.99 171.91,-316.98 157.42,-305.12"/>
<polygon fill="black" stroke="black" points="159.49,-302.29 149.54,-298.67 155.06,-307.71 159.49,-302.29"/>
</g>
<!-- 5 -->
<g id="node6" class="node">
<title>5</title>
<path fill="#a06aec" stroke="black" d="M308,-306C308,-306 198,-306 198,-306 192,-306 186,-300 186,-294 186,-294 186,-235 186,-235 186,-229 192,-223 198,-223 198,-223 308,-223 308,-223 314,-223 320,-229 320,-235 320,-235 320,-294 320,-294 320,-300 314,-306 308,-306"/>
<text text-anchor="start" x="194" y="-290.8" font-family="Helvetica,sans-Serif" font-size="14.00">sepal_length ≤ 6.05</text>
<text text-anchor="start" x="221" y="-275.8" font-family="Helvetica,sans-Serif" font-size="14.00">gini = 0.32</text>
<text text-anchor="start" x="215.5" y="-260.8" font-family="Helvetica,sans-Serif" font-size="14.00">samples = 5</text>
<text text-anchor="start" x="206" y="-245.8" font-family="Helvetica,sans-Serif" font-size="14.00">value = [0, 1, 4]</text>
<text text-anchor="start" x="225.5" y="-230.8" font-family="Helvetica,sans-Serif" font-size="14.00">class = e</text>
</g>
<!-- 3&#45;&gt;5 -->
<g id="edge5" class="edge">
<title>3&#45;&gt;5</title>
<path fill="none" stroke="black" d="M252.35,-341.91C252.42,-333.65 252.49,-324.86 252.57,-316.3"/>
<polygon fill="black" stroke="black" points="256.07,-316.05 252.65,-306.02 249.07,-315.99 256.07,-316.05"/>
</g>
<!-- 6 -->
<g id="node7" class="node">
<title>6</title>
<path fill="#ffffff" stroke="black" d="M172.5,-187C172.5,-187 65.5,-187 65.5,-187 59.5,-187 53.5,-181 53.5,-175 53.5,-175 53.5,-116 53.5,-116 53.5,-110 59.5,-104 65.5,-104 65.5,-104 172.5,-104 172.5,-104 178.5,-104 184.5,-110 184.5,-116 184.5,-116 184.5,-175 184.5,-175 184.5,-181 178.5,-187 172.5,-187"/>
<text text-anchor="start" x="61.5" y="-171.8" font-family="Helvetica,sans-Serif" font-size="14.00">petal_length ≤ 5.05</text>
<text text-anchor="start" x="91" y="-156.8" font-family="Helvetica,sans-Serif" font-size="14.00">gini = 0.5</text>
<text text-anchor="start" x="81.5" y="-141.8" font-family="Helvetica,sans-Serif" font-size="14.00">samples = 2</text>
<text text-anchor="start" x="72" y="-126.8" font-family="Helvetica,sans-Serif" font-size="14.00">value = [0, 1, 1]</text>
<text text-anchor="start" x="91.5" y="-111.8" font-family="Helvetica,sans-Serif" font-size="14.00">class = p</text>
</g>
<!-- 5&#45;&gt;6 -->
<g id="edge6" class="edge">
<title>5&#45;&gt;6</title>
<path fill="none" stroke="black" d="M206.51,-222.91C195.7,-213.47 184.1,-203.34 173,-193.65"/>
<polygon fill="black" stroke="black" points="175.24,-190.96 165.41,-187.02 170.64,-196.23 175.24,-190.96"/>
</g>
<!-- 9 -->
<g id="node10" class="node">
<title>9</title>
<path fill="#8139e5" stroke="black" d="M301,-179.5C301,-179.5 215,-179.5 215,-179.5 209,-179.5 203,-173.5 203,-167.5 203,-167.5 203,-123.5 203,-123.5 203,-117.5 209,-111.5 215,-111.5 215,-111.5 301,-111.5 301,-111.5 307,-111.5 313,-117.5 313,-123.5 313,-123.5 313,-167.5 313,-167.5 313,-173.5 307,-179.5 301,-179.5"/>
<text text-anchor="start" x="230" y="-164.3" font-family="Helvetica,sans-Serif" font-size="14.00">gini = 0.0</text>
<text text-anchor="start" x="220.5" y="-149.3" font-family="Helvetica,sans-Serif" font-size="14.00">samples = 3</text>
<text text-anchor="start" x="211" y="-134.3" font-family="Helvetica,sans-Serif" font-size="14.00">value = [0, 0, 3]</text>
<text text-anchor="start" x="230.5" y="-119.3" font-family="Helvetica,sans-Serif" font-size="14.00">class = e</text>
</g>
<!-- 5&#45;&gt;9 -->
<g id="edge9" class="edge">
<title>5&#45;&gt;9</title>
<path fill="none" stroke="black" d="M254.73,-222.91C255.19,-212.2 255.69,-200.62 256.15,-189.78"/>
<polygon fill="black" stroke="black" points="259.65,-189.81 256.58,-179.67 252.66,-189.51 259.65,-189.81"/>
</g>
<!-- 7 -->
<g id="node8" class="node">
<title>7</title>
<path fill="#8139e5" stroke="black" d="M98,-68C98,-68 12,-68 12,-68 6,-68 0,-62 0,-56 0,-56 0,-12 0,-12 0,-6 6,0 12,0 12,0 98,0 98,0 104,0 110,-6 110,-12 110,-12 110,-56 110,-56 110,-62 104,-68 98,-68"/>
<text text-anchor="start" x="27" y="-52.8" font-family="Helvetica,sans-Serif" font-size="14.00">gini = 0.0</text>
<text text-anchor="start" x="17.5" y="-37.8" font-family="Helvetica,sans-Serif" font-size="14.00">samples = 1</text>
<text text-anchor="start" x="8" y="-22.8" font-family="Helvetica,sans-Serif" font-size="14.00">value = [0, 0, 1]</text>
<text text-anchor="start" x="27.5" y="-7.8" font-family="Helvetica,sans-Serif" font-size="14.00">class = e</text>
</g>
<!-- 6&#45;&gt;7 -->
<g id="edge7" class="edge">
<title>6&#45;&gt;7</title>
<path fill="none" stroke="black" d="M95.17,-103.73C90.1,-95.06 84.75,-85.9 79.65,-77.18"/>
<polygon fill="black" stroke="black" points="82.53,-75.17 74.46,-68.3 76.49,-78.7 82.53,-75.17"/>
</g>
<!-- 8 -->
<g id="node9" class="node">
<title>8</title>
<path fill="#39e581" stroke="black" d="M226,-68C226,-68 140,-68 140,-68 134,-68 128,-62 128,-56 128,-56 128,-12 128,-12 128,-6 134,0 140,0 140,0 226,0 226,0 232,0 238,-6 238,-12 238,-12 238,-56 238,-56 238,-62 232,-68 226,-68"/>
<text text-anchor="start" x="155" y="-52.8" font-family="Helvetica,sans-Serif" font-size="14.00">gini = 0.0</text>
<text text-anchor="start" x="145.5" y="-37.8" font-family="Helvetica,sans-Serif" font-size="14.00">samples = 1</text>
<text text-anchor="start" x="136" y="-22.8" font-family="Helvetica,sans-Serif" font-size="14.00">value = [0, 1, 0]</text>
<text text-anchor="start" x="155.5" y="-7.8" font-family="Helvetica,sans-Serif" font-size="14.00">class = p</text>
</g>
<!-- 6&#45;&gt;8 -->
<g id="edge8" class="edge">
<title>6&#45;&gt;8</title>
<path fill="none" stroke="black" d="M142.83,-103.73C147.9,-95.06 153.25,-85.9 158.35,-77.18"/>
<polygon fill="black" stroke="black" points="161.51,-78.7 163.54,-68.3 155.47,-75.17 161.51,-78.7"/>
</g>
<!-- 11 -->
<g id="node12" class="node">
<title>11</title>
<path fill="#ab7bee" stroke="black" d="M449,-306C449,-306 351,-306 351,-306 345,-306 339,-300 339,-294 339,-294 339,-235 339,-235 339,-229 345,-223 351,-223 351,-223 449,-223 449,-223 455,-223 461,-229 461,-235 461,-235 461,-294 461,-294 461,-300 455,-306 449,-306"/>
<text text-anchor="start" x="347" y="-290.8" font-family="Helvetica,sans-Serif" font-size="14.00">sepal_width ≤ 3.1</text>
<text text-anchor="start" x="364.5" y="-275.8" font-family="Helvetica,sans-Serif" font-size="14.00">gini = 0.375</text>
<text text-anchor="start" x="362.5" y="-260.8" font-family="Helvetica,sans-Serif" font-size="14.00">samples = 4</text>
<text text-anchor="start" x="353" y="-245.8" font-family="Helvetica,sans-Serif" font-size="14.00">value = [0, 1, 3]</text>
<text text-anchor="start" x="372.5" y="-230.8" font-family="Helvetica,sans-Serif" font-size="14.00">class = e</text>
</g>
<!-- 10&#45;&gt;11 -->
<g id="edge11" class="edge">
<title>10&#45;&gt;11</title>
<path fill="none" stroke="black" d="M400.65,-341.91C400.58,-333.65 400.51,-324.86 400.43,-316.3"/>
<polygon fill="black" stroke="black" points="403.93,-315.99 400.35,-306.02 396.93,-316.05 403.93,-315.99"/>
</g>
<!-- 14 -->
<g id="node15" class="node">
<title>14</title>
<path fill="#8139e5" stroke="black" d="M584.5,-298.5C584.5,-298.5 491.5,-298.5 491.5,-298.5 485.5,-298.5 479.5,-292.5 479.5,-286.5 479.5,-286.5 479.5,-242.5 479.5,-242.5 479.5,-236.5 485.5,-230.5 491.5,-230.5 491.5,-230.5 584.5,-230.5 584.5,-230.5 590.5,-230.5 596.5,-236.5 596.5,-242.5 596.5,-242.5 596.5,-286.5 596.5,-286.5 596.5,-292.5 590.5,-298.5 584.5,-298.5"/>
<text text-anchor="start" x="510" y="-283.3" font-family="Helvetica,sans-Serif" font-size="14.00">gini = 0.0</text>
<text text-anchor="start" x="497" y="-268.3" font-family="Helvetica,sans-Serif" font-size="14.00">samples = 37</text>
<text text-anchor="start" x="487.5" y="-253.3" font-family="Helvetica,sans-Serif" font-size="14.00">value = [0, 0, 37]</text>
<text text-anchor="start" x="510.5" y="-238.3" font-family="Helvetica,sans-Serif" font-size="14.00">class = e</text>
</g>
<!-- 10&#45;&gt;14 -->
<g id="edge14" class="edge">
<title>10&#45;&gt;14</title>
<path fill="none" stroke="black" d="M448.53,-341.91C462.36,-330.1 477.44,-317.22 491.22,-305.45"/>
<polygon fill="black" stroke="black" points="493.83,-307.82 499.16,-298.67 489.29,-302.5 493.83,-307.82"/>
</g>
<!-- 12 -->
<g id="node13" class="node">
<title>12</title>
<path fill="#8139e5" stroke="black" d="M439,-179.5C439,-179.5 353,-179.5 353,-179.5 347,-179.5 341,-173.5 341,-167.5 341,-167.5 341,-123.5 341,-123.5 341,-117.5 347,-111.5 353,-111.5 353,-111.5 439,-111.5 439,-111.5 445,-111.5 451,-117.5 451,-123.5 451,-123.5 451,-167.5 451,-167.5 451,-173.5 445,-179.5 439,-179.5"/>
<text text-anchor="start" x="368" y="-164.3" font-family="Helvetica,sans-Serif" font-size="14.00">gini = 0.0</text>
<text text-anchor="start" x="358.5" y="-149.3" font-family="Helvetica,sans-Serif" font-size="14.00">samples = 3</text>
<text text-anchor="start" x="349" y="-134.3" font-family="Helvetica,sans-Serif" font-size="14.00">value = [0, 0, 3]</text>
<text text-anchor="start" x="368.5" y="-119.3" font-family="Helvetica,sans-Serif" font-size="14.00">class = e</text>
</g>
<!-- 11&#45;&gt;12 -->
<g id="edge12" class="edge">
<title>11&#45;&gt;12</title>
<path fill="none" stroke="black" d="M398.61,-222.91C398.25,-212.2 397.85,-200.62 397.48,-189.78"/>
<polygon fill="black" stroke="black" points="400.97,-189.54 397.13,-179.67 393.98,-189.78 400.97,-189.54"/>
</g>
<!-- 13 -->
<g id="node14" class="node">
<title>13</title>
<path fill="#39e581" stroke="black" d="M567,-179.5C567,-179.5 481,-179.5 481,-179.5 475,-179.5 469,-173.5 469,-167.5 469,-167.5 469,-123.5 469,-123.5 469,-117.5 475,-111.5 481,-111.5 481,-111.5 567,-111.5 567,-111.5 573,-111.5 579,-117.5 579,-123.5 579,-123.5 579,-167.5 579,-167.5 579,-173.5 573,-179.5 567,-179.5"/>
<text text-anchor="start" x="496" y="-164.3" font-family="Helvetica,sans-Serif" font-size="14.00">gini = 0.0</text>
<text text-anchor="start" x="486.5" y="-149.3" font-family="Helvetica,sans-Serif" font-size="14.00">samples = 1</text>
<text text-anchor="start" x="477" y="-134.3" font-family="Helvetica,sans-Serif" font-size="14.00">value = [0, 1, 0]</text>
<text text-anchor="start" x="496.5" y="-119.3" font-family="Helvetica,sans-Serif" font-size="14.00">class = p</text>
</g>
<!-- 11&#45;&gt;13 -->
<g id="edge13" class="edge">
<title>11&#45;&gt;13</title>
<path fill="none" stroke="black" d="M443.02,-222.91C455.42,-211.21 468.93,-198.46 481.31,-186.78"/>
<polygon fill="black" stroke="black" points="483.98,-189.08 488.85,-179.67 479.17,-183.98 483.98,-189.08"/>
</g>
</g>
</svg>