<?xml version="1.0" encoding="UTF-8" standalone="no"?>
<!DOCTYPE svg PUBLIC "-//W3C//DTD SVG 1.1//EN"
 "http://www.w3.org/Graphics/SVG/1.1/DTD/svg11.dtd">
<!-- Generated by graphviz version 2.43.0 (0)
 -->
<!-- Title: Tree Pages: 1 -->
<svg width="604pt" height="671pt"
 viewBox="0.00 0.00 603.50 671.00" xmlns="http://www.w3.org/2000/svg" xmlns:xlink="http://www.w3.org/1999/xlink">
<g id="graph0" class="graph" transform="scale(1 1) rotate(0) translate(4 667)">
<title>Tree</title>
<polygon fill="white" stroke="transparent" points="-4,4 -4,-667 599.5,-667 599.5,4 -4,4"/>
<!-- 0 -->
<g id="node1" class="node">
<title>0</title>
<path fill="#f7f3fd" stroke="black" d="M309,-663C309,-663 201,-663 201,-663 195,-663 189,-657 189,-651 189,-651 189,-592 189,-592 189,-586 195,-580 201,-580 201,-580 309,-580 309,-580 315,-580 321,-586 321,-592 321,-592 321,-651 321,-651 321,-657 315,-663 309,-663"/>
<text text-anchor="start" x="201" y="-647.8" font-family="Helvetica,sans-Serif" font-size="14.00">petal_length ≤ 2.6</text>
<text text-anchor="start" x="219.5" y="-632.8" font-family="Helvetica,sans-Serif" font-size="14.00">gini = 0.665</text>
<text text-anchor="start" x="210" y="-617.8" font-family="Helvetica,sans-Serif" font-size="14.00">samples = 120</text>
<text text-anchor="start" x="197" y="-602.8" font-family="Helvetica,sans-Serif" font-size="14.00">value = [39, 37, 44]</text>
<text text-anchor="start" x="227.5" y="-587.8" font-family="Helvetica,sans-Serif" font-size="14.00">class = e</text>
</g>
<!-- 1 -->
<g id="node2" class="node">
<title>1</title>
<path fill="#e58139" stroke="black" d="M231.5,-536.5C231.5,-536.5 138.5,-536.5 138.5,-536.5 132.5,-536.5 126.5,-530.5 126.5,-524.5 126.5,-524.5 126.5,-480.5 126.5,-480.5 126.5,-474.5 132.5,-468.5 138.5,-468.5 138.5,-468.5 231.5,-468.5 231.5,-468.5 237.5,-468.5 243.5,-474.5 243.5,-480.5 243.5,-480.5 243.5,-524.5 243.5,-524.5 243.5,-530.5 237.5,-536.5 231.5,-536.5"/>
<text text-anchor="start" x="157" y="-521.3" font-family="Helvetica,sans-Serif" font-size="14.00">gini = 0.0</text>
<text text-anchor="start" x="144" y="-506.3" font-family="Helvetica,sans-Serif" font-size="14.00">samples = 39</text>
<text text-anchor="start" x="134.5" y="-491.3" font-family="Helvetica,sans-Serif" font-size="14.00">value = [39, 0, 0]</text>
<text text-anchor="start" x="158" y="-476.3" font-family="Helvetica,sans-Serif" font-size="14.00">class = s</text>
</g>
<!-- 0&#45;&gt;1 -->
<g id="edge1" class="edge">
<title>0&#45;&gt;1</title>
<path fill="none" stroke="black" d="M230.71,-579.91C224.05,-568.76 216.8,-556.66 210.09,-545.44"/>
<polygon fill="black" stroke="black" points="212.98,-543.45 204.84,-536.67 206.97,-547.05 212.98,-543.45"/>
<text text-anchor="middle" x="198.75" y="-557.21" font-family="Helvetica,sans-Serif" font-size="14.00">True</text>
</g>
<!-- 2 -->
<g id="node3" class="node">
<title>2</title>
<path fill="#ebe0fb" stroke="black" d="M376,-544C376,-544 274,-544 274,-544 268,-544 262,-538 262,-532 262,-532 262,-473 262,-473 262,-467 268,-461 274,-461 274,-461 376,-461 376,-461 382,-461 388,-467 388,-473 388,-473 388,-532 388,-532 388,-538 382,-544 376,-544"/>
<text text-anchor="start" x="270" y="-528.8" font-family="Helvetica,sans-Serif" font-size="14.00">petal_width ≤ 1.65</text>
<text text-anchor="start" x="289.5" y="-513.8" font-family="Helvetica,sans-Serif" font-size="14.00">gini = 0.496</text>
<text text-anchor="start" x="284" y="-498.8" font-family="Helvetica,sans-Serif" font-size="14.00">samples = 81</text>
<text text-anchor="start" x="270.5" y="-483.8" font-family="Helvetica,sans-Serif" font-size="14.00">value = [0, 37, 44]</text>
<text text-anchor="start" x="297.5" y="-468.8" font-family="Helvetica,sans-Serif" font-size="14.00">class = e</text>
</g>
<!-- 0&#45;&gt;2 -->
<g id="edge2" class="edge">
<title>0&#45;&gt;2</title>
<path fill="none" stroke="black" d="M279.29,-579.91C284.55,-571.1 290.18,-561.7 295.62,-552.61"/>
<polygon fill="black" stroke="black" points="298.63,-554.4 300.76,-544.02 292.62,-550.81 298.63,-554.4"/>
<text text-anchor="middle" x="306.85" y="-564.57" font-family="Helvetica,sans-Serif" font-size="14.00">False</text>
</g>
<!-- 3 -->
<g id="node4" class="node">
<title>3</title>
<path fill="#4fe88f" stroke="black" d="M304.5,-425C304.5,-425 197.5,-425 197.5,-425 191.5,-425 185.5,-419 185.5,-413 185.5,-413 185.5,-354 185.5,-354 185.5,-348 191.5,-342 197.5,-342 197.5,-342 304.5,-342 304.5,-342 310.5,-342 316.5,-348 316.5,-354 316.5,-354 316.5,-413 316.5,-413 316.5,-419 310.5,-425 304.5,-425"/>
<text text-anchor="start" x="193.5" y="-409.8" font-family="Helvetica,sans-Serif" font-size="14.00">petal_length ≤ 4.95</text>
<text text-anchor="start" x="219" y="-394.8" font-family="Helvetica,sans-Serif" font-size="14.00">gini = 0.18</text>
<text text-anchor="start" x="210" y="-379.8" font-family="Helvetica,sans-Serif" font-size="14.00">samples = 40</text>
<text text-anchor="start" x="200.5" y="-364.8" font-family="Helvetica,sans-Serif" font-size="14.00">value = [0, 36, 4]</text>
<text text-anchor="start" x="223.5" y="-349.8" font-family="Helvetica,sans-Serif" font-size="14.00">class = p</text>
</g>
<!-- 2&#45;&gt;3 -->
<g id="edge3" class="edge">
<title>2&#45;&gt;3</title>
<path fill="none" stroke="black" d="M299.33,-460.91C293.76,-452.1 287.81,-442.7 282.06,-433.61"/>
<polygon fill="black" stroke="black" points="284.93,-431.6 276.63,-425.02 279.02,-435.34 284.93,-431.6"/>
</g>
<!-- 10 -->
<g id="node11" class="node">
<title>10</title>
<path fill="#843ee6" stroke="black" d="M453.5,-425C453.5,-425 346.5,-425 346.5,-425 340.5,-425 334.5,-419 334.5,-413 334.5,-413 334.5,-354 334.5,-354 334.5,-348 340.5,-342 346.5,-342 346.5,-342 453.5,-342 453.5,-342 459.5,-342 465.5,-348 465.5,-354 465.5,-354 465.5,-413 465.5,-413 465.5,-419 459.5,-425 453.5,-425"/>
<text text-anchor="start" x="342.5" y="-409.8" font-family="Helvetica,sans-Serif" font-size="14.00">petal_length ≤ 4.85</text>
<text text-anchor="start" x="364.5" y="-394.8" font-family="Helvetica,sans-Serif" font-size="14.00">gini = 0.048</text>
<text text-anchor="start" x="359" y="-379.8" font-family="Helvetica,sans-Serif" font-size="14.00">samples = 41</text>
<text text-anchor="start" x="349.5" y="-364.8" font-family="Helvetica,sans-Serif" font-size="14.00">value = [0, 1, 40]</text>
<text text-anchor="start" x="372.5" y="-349.8" font-family="Helvetica,sans-Serif" font-size="14.00">class = e</text>
</g>
<!-- 2&#45;&gt;10 -->
<g id="edge10" class="edge">
<title>2&#45;&gt;10</title>
<path fill="none" stroke="black" d="M351.02,-460.91C356.66,-452.1 362.69,-442.7 368.52,-433.61"/>
<polygon fill="black" stroke="black" points="371.57,-435.33 374.03,-425.02 365.68,-431.55 371.57,-435.33"/>
</g>
<!-- 4 -->
<g id="node5" class="node">
<title>4</title>
<path fill="#39e581" stroke="black" d="M154.5,-298.5C154.5,-298.5 61.5,-298.5 61.5,-298.5 55.5,-298.5 49.5,-292.5 49.5,-286.5 49.5,-286.5 49.5,-242.5 49.5,-242.5 49.5,-236.5 55.5,-230.5 61.5,-230.5 61.5,-230.5 154.5,-230.5 154.5,-230.5 160.5,-230.5 166.5,-236.5 166.5,-242.5 166.5,-242.5 166.5,-286.5 166.5,-286.5 166.5,-292.5 160.5,-298.5 154.5,-298.5"/>
<text text-anchor="start" x="80" y="-283.3" font-family="Helvetica,sans-Serif" font-size="14.00">gini = 0.0</text>
<text text-anchor="start" x="67" y="-268.3" font-family="Helvetica,sans-Serif" font-size="14.00">samples = 35</text>
<text text-anchor="start" x="57.5" y="-253.3" font-family="Helvetica,sans-Serif" font-size="14.00">value = [0, 35, 0]</text>
<text text-anchor="start" x="80.5" y="-238.3" font-family="Helvetica,sans-Serif" font-size="14.00">class = p</text>
</g>
<!-- 3&#45;&gt;4 -->
<g id="edge4" class="edge">
<title>3&#45;&gt;4</title>
<path fill="none" stroke="black" d="M201.39,-341.91C186.82,-329.99 170.91,-316.98 156.42,-305.12"/>
<polygon fill="black" stroke="black" points="158.49,-302.29 148.54,-298.67 154.06,-307.71 158.49,-302.29"/>
</g>
<!-- 5 -->
<g id="node6" class="node">
<title>5</title>
<path fill="#a06aec" stroke="black" d="M307,-306C307,-306 197,-306 197,-306 191,-306 185,-300 185,-294 185,-294 185,-235 185,-235 185,-229 191,-223 197,-223 197,-223 307,-223 307,-223 313,-223 319,-229 319,-235 319,-235 319,-294 319,-294 319,-300 313,-306 307,-306"/>
<text text-anchor="start" x="193" y="-290.8" font-family="Helvetica,sans-Serif" font-size="14.00">sepal_length ≤ 6.05</text>
<text text-anchor="start" x="220" y="-275.8" font-family="Helvetica,sans-Serif" font-size="14.00">gini = 0.32</text>
<text text-anchor="start" x="214.5" y="-260.8" font-family="Helvetica,sans-Serif" font-size="14.00">samples = 5</text>
<text text-anchor="start" x="205" y="-245.8" font-family="Helvetica,sans-Serif" font-size="14.00">value = [0, 1, 4]</text>
<text text-anchor="start" x="224.5" y="-230.8" font-family="Helvetica,sans-Serif" font-size="14.00">class = e</text>
</g>
<!-- 3&#45;&gt;5 -->
<g id="edge5" class="edge">
<title>3&#45;&gt;5</title>
<path fill="none" stroke="black" d="M251.35,-341.91C251.42,-333.65 251.49,-324.86 251.57,-316.3"/>
<polygon fill="black" stroke="black" points="255.07,-316.05 251.65,-306.02 248.07,-315.99 255.07,-316.05"/>
</g>
<!-- 6 -->
<g id="node7" class="node">
<title>6</title>
<path fill="#ffffff" stroke="black" d="M171.5,-187C171.5,-187 66.5,-187 66.5,-187 60.5,-187 54.5,-181 54.5,-175 54.5,-175 54.5,-116 54.5,-116 54.5,-110 60.5,-104 66.5,-104 66.5,-104 171.5,-104 171.5,-104 177.5,-104 183.5,-110 183.5,-116 183.5,-116 183.5,-175 183.5,-175 183.5,-181 177.5,-187 171.5,-187"/>
<text text-anchor="start" x="62.5" y="-171.8" font-family="Helvetica,sans-Serif" font-size="14.00">sepal_width ≤ 2.45</text>
<text text-anchor="start" x="91" y="-156.8" font-family="Helvetica,sans-Serif" font-size="14.00">gini = 0.5</text>
<text text-anchor="start" x="81.5" y="-141.8" font-family="Helvetica,sans-Serif" font-size="14.00">samples = 2</text>
<text text-anchor="start" x="72" y="-126.8" font-family="Helvetica,sans-Serif" font-size="14.00">value = [0, 1, 1]</text>
<text text-anchor="start" x="91.5" y="-111.8" font-family="Helvetica,sans-Serif" font-size="14.00">class = p</text>
</g>
<!-- 5&#45;&gt;6 -->
<g id="edge6" class="edge">
<title>5&#45;&gt;6</title>
<path fill="none" stroke="black" d="M205.86,-222.91C195.13,-213.47 183.62,-203.34 172.6,-193.65"/>
<polygon fill="black" stroke="black" points="174.88,-191 165.06,-187.02 170.26,-196.25 174.88,-191"/>
</g>
<!-- 9 -->
<g id="node10" class="node">
<title>9</title>
<path fill="#8139e5" stroke="black" d="M300,-179.5C300,-179.5 214,-179.5 214,-179.5 208,-179.5 202,-173.5 202,-167.5 202,-167.5 202,-123.5 202,-123.5 202,-117.5 208,-111.5 214,-111.5 214,-111.5 300,-111.5 300,-111.5 306,-111.5 312,-117.5 312,-123.5 312,-123.5 312,-167.5 312,-167.5 312,-173.5 306,-179.5 300,-179.5"/>
<text text-anchor="start" x="229" y="-164.3" font-family="Helvetica,sans-Serif" font-size="14.00">gini = 0.0</text>
<text text-anchor="start" x="219.5" y="-149.3" font-family="Helvetica,sans-Serif" font-size="14.00">samples = 3</text>
<text text-anchor="start" x="210" y="-134.3" font-family="Helvetica,sans-Serif" font-size="14.00">value = [0, 0, 3]</text>
<text text-anchor="start" x="229.5" y="-119.3" font-family="Helvetica,sans-Serif" font-size="14.00">class = e</text>
</g>
<!-- 5&#45;&gt;9 -->
<g id="edge9" class="edge">
<title>5&#45;&gt;9</title>
<path fill="none" stroke="black" d="M253.73,-222.91C254.19,-212.2 254.69,-200.62 255.15,-189.78"/>
<polygon fill="black" stroke="black" points="258.65,-189.81 255.58,-179.67 251.66,-189.51 258.65,-189.81"/>
</g>
<!-- 7 -->
<g id="node8" class="node">
<title>7</title>
<path fill="#8139e5" stroke="black" d="M98,-68C98,-68 12,-68 12,-68 6,-68 0,-62 0,-56 0,-56 0,-12 0,-12 0,-6 6,0 12,0 12,0 98,0 98,0 104,0 110,-6 110,-12 110,-12 110,-56 110,-56 110,-62 104,-68 98,-68"/>
<text text-anchor="start" x="27" y="-52.8" font-family="Helvetica,sans-Serif" font-size="14.00">gini = 0.0</text>
<text text-anchor="start" x="17.5" y="-37.8" font-family="Helvetica,sans-Serif" font-size="14.00">samples = 1</text>
<text text-anchor="start" x="8" y="-22.8" font-family="Helvetica,sans-Serif" font-size="14.00">value = [0, 0, 1]</text>
<text text-anchor="start" x="27.5" y="-7.8" font-family="Helvetica,sans-Serif" font-size="14.00">class = e</text>
</g>
<!-- 6&#45;&gt;7 -->
<g id="edge7" class="edge">
<title>6&#45;&gt;7</title>
<path fill="none" stroke="black" d="M95.17,-103.73C90.1,-95.06 84.75,-85.9 79.65,-77.18"/>
<polygon fill="black" stroke="black" points="82.53,-75.17 74.46,-68.3 76.49,-78.7 82.53,-75.17"/>
</g>
<!-- 8 -->
<g id="node9" class="node">
<title>8</title>
<path fill="#39e581" stroke="black" d="M226,-68C226,-68 140,-68 140,-68 134,-68 128,-62 128,-56 128,-56 128,-12 128,-12 128,-6 134,0 140,0 140,0 226,0 226,0 232,0 238,-6 238,-12 238,-12 238,-56 238,-56 238,-62 232,-68 226,-68"/>
<text text-anchor="start" x="155" y="-52.8" font-family="Helvetica,sans-Serif" font-size="14.00">gini = 0.0</text>
<text text-anchor="start" x="145.5" y="-37.8" font-family="Helvetica,sans-Serif" font-size="14.00">samples = 1</text>
<text text-anchor="start" x="136" y="-22.8" font-family="Helvetica,sans-Serif" font-size="14.00">value = [0, 1, 0]</text>
<text text-anchor="start" x="155.5" y="-7.8" font-family="Helvetica,sans-Serif" font-size="14.00">class = p</text>
</g>
<!-- 6&#45;&gt;8 -->
<g id="edge8" class="edge">
<title>6&#45;&gt;8</title>
<path fill="none" stroke="black" d="M142.83,-103.73C147.9,-95.06 153.25,-85.9 158.35,-77.18"/>
<polygon fill="black" stroke="black" points="161.51,-78.7 163.54,-68.3 155.47,-75.17 161.51,-78.7"/>
</g>
<!-- 11 -->
<g id="node12" class="node">
<title>11</title>
<path fill="#ab7bee" stroke="black" d="M448,-306C448,-306 350,-306 350,-306 344,-306 338,-300 338,-294 338,-294 338,-235 338,-235 338,-229 344,-223 350,-223 350,-223 448,-223 448,-223 454,-223 460,-229 460,-235 460,-235 460,-294 460,-294 460,-300 454,-306 448,-306"/>
<text text-anchor="start" x="346" y="-290.8" font-family="Helvetica,sans-Serif" font-size="14.00">sepal_width ≤ 3.1</text>
<text text-anchor="start" x="363.5" y="-275.8" font-family="Helvetica,sans-Serif" font-size="14.00">gini = 0.375</text>
<text text-anchor="start" x="361.5" y="-260.8" font-family="Helvetica,sans-Serif" font-size="14.00">samples = 4</text>
<text text-anchor="start" x="352" y="-245.8" font-family="Helvetica,sans-Serif" font-size="14.00">value = [0, 1, 3]</text>
<text text-anchor="start" x="371.5" y="-230.8" font-family="Helvetica,sans-Serif" font-size="14.00">class = e</text>
</g>
<!-- 10&#45;&gt;11 -->
<g id="edge11" class="edge">
<title>10&#45;&gt;11</title>
<path fill="none" stroke="black" d="M399.65,-341.91C399.58,-333.65 399.51,-324.86 399.43,-316.3"/>
<polygon fill="black" stroke="black" points="402.93,-315.99 399.35,-306.02 395.93,-316.05 402.93,-315.99"/>
</g>
<!-- 14 -->
<g id="node15" class="node">
<title>14</title>
<path fill="#8139e5" stroke="black" d="M583.5,-298.5C583.5,-298.5 490.5,-298.5 490.5,-298.5 484.5,-298.5 478.5,-292.5 478.5,-286.5 478.5,-286.5 478.5,-242.5 478.5,-242.5 478.5,-236.5 484.5,-230.5 490.5,-230.5 490.5,-230.5 583.5,-230.5 583.5,-230.5 589.5,-230.5 595.5,-236.5 595.5,-242.5 595.5,-242.5 595.5,-286.5 595.5,-286.5 595.5,-292.5 589.5,-298.5 583.5,-298.5"/>
<text text-anchor="start" x="509" y="-283.3" font-family="Helvetica,sans-Serif" font-size="14.00">gini = 0.0</text>
<text text-anchor="start" x="496" y="-268.3" font-family="Helvetica,sans-Serif" font-size="14.00">samples = 37</text>
<text text-anchor="start" x="486.5" y="-253.3" font-family="Helvetica,sans-Serif" font-size="14.00">value = [0, 0, 37]</text>
<text text-anchor="start" x="509.5" y="-238.3" font-family="Helvetica,sans-Serif" font-size="14.00">class = e</text>
</g>
<!-- 10&#45;&gt;14 -->
<g id="edge14" class="edge">
<title>10&#45;&gt;14</title>
<path fill="none" stroke="black" d="M447.53,-341.91C461.36,-330.1 476.44,-317.22 490.22,-305.45"/>
<polygon fill="black" stroke="black" points="492.83,-307.82 498.16,-298.67 488.29,-302.5 492.83,-307.82"/>
</g>
<!-- 12 -->
<g id="node13" class="node">
<title>12</title>
<path fill="#8139e5" stroke="black" d="M438,-179.5C438,-179.5 352,-179.5 352,-179.5 346,-179.5 340,-173.5 340,-167.5 340,-167.5 340,-123.5 340,-123.5 340,-117.5 346,-111.5 352,-111.5 352,-111.5 438,-111.5 438,-111.5 444,-111.5 450,-117.5 450,-123.5 450,-123.5 450,-167.5 450,-167.5 450,-173.5 444,-179.5 438,-179.5"/>
<text text-anchor="start" x="367" y="-164.3" font-family="Helvetica,sans-Serif" font-size="14.00">gini = 0.0</text>
<text text-anchor="start" x="357.5" y="-149.3" font-family="Helvetica,sans-Serif" font-size="14.00">samples = 3</text>
<text text-anchor="start" x="348" y="-134.3" font-family="Helvetica,sans-Serif" font-size="14.00">value = [0, 0, 3]</text>
<text text-anchor="start" x="367.5" y="-119.3" font-family="Helvetica,sans-Serif" font-size="14.00">class = e</text>
</g>
<!-- 11&#45;&gt;12 -->
<g id="edge12" class="edge">
<title>11&#45;&gt;12</title>
<path fill="none" stroke="black" d="M397.61,-222.91C397.25,-212.2 396.85,-200.62 396.48,-189.78"/>
<polygon fill="black" stroke="black" points="399.97,-189.54 396.13,-179.67 392.98,-189.78 399.97,-189.54"/>
</g>
<!-- 13 -->
<g id="node14" class="node">
<title>13</title>
<path fill="#39e581" stroke="black" d="M566,-179.5C566,-179.5 480,-179.5 480,-179.5 474,-179.5 468,-173.5 468,-167.5 468,-167.5 468,-123.5 468,-123.5 468,-117.5 474,-111.5 480,-111.5 480,-111.5 566,-111.5 566,-111.5 572,-111.5 578,-117.5 578,-123.5 578,-123.5 578,-167.5 578,-167.5 578,-173.5 572,-179.5 566,-179.5"/>
<text text-anchor="start" x="495" y="-164.3" font-family="Helvetica,sans-Serif" font-size="14.00">gini = 0.0</text>
<text text-anchor="start" x="485.5" y="-149.3" font-family="Helvetica,sans-Serif" font-size="14.00">samples = 1</text>
<text text-anchor="start" x="476" y="-134.3" font-family="Helvetica,sans-Serif" font-size="14.00">value = [0, 1, 0]</text>
<text text-anchor="start" x="495.5" y="-119.3" font-family="Helvetica,sans-Serif" font-size="14.00">class = p</text>
</g>
<!-- 11&#45;&gt;13 -->
<g id="edge13" class="edge">
<title>11&#45;&gt;13</title>
<path fill="none" stroke="black" d="M442.02,-222.91C454.42,-211.21 467.93,-198.46 480.31,-186.78"/>
<polygon fill="black" stroke="black" points="482.98,-189.08 487.85,-179.67 478.17,-183.98 482.98,-189.08"/>
</g>
</g>
</svg>